<svg width="96" height="96" viewBox="0 0 96 96" fill="none" xmlns="http://www.w3.org/2000/svg">
<g id="Property 1=Variant3">
<g id="code_blocks">
<path id="Vector" d="M33.0239 47.9999L39.9999 41.0119C40.5999 40.4139 40.8999 39.6826 40.8999 38.8179C40.8999 37.9533 40.5999 37.2219 39.9999 36.6239C39.3999 36.0239 38.6722 35.7239 37.8169 35.7239C36.9609 35.7239 36.2219 36.0239 35.5999 36.6239L26.6109 45.5889C26.2469 45.9569 25.9819 46.3443 25.8159 46.7509C25.6499 47.1569 25.5669 47.5786 25.5669 48.0159C25.5669 48.4533 25.6499 48.8699 25.8159 49.2659C25.9819 49.6626 26.2469 50.0443 26.6109 50.4109L35.7239 59.5239C36.3459 60.1239 37.0849 60.4199 37.9409 60.4119C38.7962 60.4039 39.5239 60.0986 40.1239 59.4959C40.7239 58.8933 41.0239 58.1566 41.0239 57.2859C41.0239 56.4153 40.7239 55.6786 40.1239 55.0759L33.0239 47.9999ZM62.9759 47.9999L55.8759 55.0999C55.2759 55.6999 54.9759 56.4333 54.9759 57.2999C54.9759 58.1666 55.2759 58.8999 55.8759 59.4999C56.4759 60.0999 57.2035 60.3999 58.0589 60.3999C58.9149 60.3999 59.6539 60.0999 60.2759 59.4999L69.3889 50.4109C69.7529 50.0429 70.0179 49.6556 70.1839 49.2489C70.3499 48.8429 70.4329 48.4213 70.4329 47.9839C70.4329 47.5466 70.3499 47.1299 70.1839 46.7339C70.0179 46.3373 69.7529 45.9556 69.3889 45.5889L60.2759 36.4759C60.0119 36.1586 59.6775 35.9293 59.2729 35.7879C58.8682 35.6466 58.4695 35.5759 58.0769 35.5759C57.6842 35.5759 57.3065 35.6469 56.9439 35.7889C56.5812 35.9309 56.2442 36.1546 55.9329 36.4599C55.3109 37.1033 54.9999 37.8533 54.9999 38.7099C54.9999 39.5673 55.2999 40.2973 55.8999 40.8999L62.9759 47.9999ZM18.2149 84.5979C16.3749 84.5979 14.7795 83.9223 13.4289 82.5709C12.0775 81.2203 11.4019 79.6249 11.4019 77.7849V18.2149C11.4019 16.3683 12.0775 14.7673 13.4289 13.4119C14.7795 12.0559 16.3749 11.3779 18.2149 11.3779H77.7849C79.6315 11.3779 81.2325 12.0559 82.5879 13.4119C83.9439 14.7673 84.6218 16.3683 84.6218 18.2149V77.7849C84.6218 79.6249 83.9439 81.2203 82.5879 82.5709C81.2325 83.9223 79.6315 84.5979 77.7849 84.5979H18.2149ZM18.2149 77.7849H77.7849V18.2149H18.2149V77.7849Z" fill="#0B74FF"/>
</g>
</g>
</svg>
