<svg width="96" height="96" viewBox="0 0 96 96" fill="none" xmlns="http://www.w3.org/2000/svg">
<g id="Property 1=Default">
<g id="approval_delegation">
<path id="Vector" d="M57.5979 32.5589L78.7109 11.5459C79.3395 10.9166 80.1059 10.6059 81.0098 10.6139C81.9132 10.6219 82.7129 10.9326 83.4089 11.5459C84.0882 12.1746 84.4279 12.9613 84.4279 13.9059C84.4279 14.8513 84.0882 15.6636 83.4089 16.3429L60.0089 39.8199C59.3075 40.5153 58.4989 40.8629 57.5829 40.8629C56.6669 40.8629 55.8682 40.5153 55.1869 39.8199L43.0109 27.6199C42.3309 26.9399 41.9869 26.1483 41.9789 25.2449C41.9709 24.3409 42.3069 23.5413 42.9869 22.8459C43.6669 22.1659 44.4832 21.8259 45.4359 21.8259C46.3885 21.8259 47.2049 22.1659 47.8849 22.8459L57.5979 32.5589ZM60.1519 85.0719L84.9519 77.2719C84.9519 75.9386 84.4352 74.8053 83.4019 73.8719C82.3685 72.9386 81.1519 72.5053 79.7519 72.5719H58.6609C57.7102 72.6386 56.7229 72.5719 55.6989 72.3719C54.6749 72.1719 53.6592 71.9056 52.6519 71.5729L46.0519 69.5769C45.2519 69.3269 44.6519 68.8006 44.2519 67.9979C43.8519 67.1946 43.7852 66.3916 44.0519 65.5889C44.3185 64.7909 44.8352 64.1926 45.6019 63.7939C46.3685 63.3953 47.1519 63.3626 47.9519 63.6959L54.5669 65.8429C55.2369 66.0943 55.9352 66.2826 56.6619 66.4079C57.3885 66.5332 58.1195 66.5879 58.8549 66.5719H64.4559H64.4369H64.4519C64.4519 65.1719 63.9812 63.9553 63.0399 62.9219C62.0985 61.8886 60.9692 61.1053 59.6519 60.5719L37.8519 52.2719H29.7149V76.1199L60.1519 85.0719ZM58.6129 91.2739L29.7149 82.9929C29.4702 84.8089 28.6045 86.1973 27.1179 87.1579C25.6319 88.1179 24.2265 88.5979 22.9019 88.5979H14.2149C12.3249 88.5979 10.7169 87.9349 9.39086 86.6089C8.06486 85.2829 7.40186 83.6749 7.40186 81.7849V52.5349C7.40186 50.6443 8.06486 49.0363 9.39086 47.7109C10.7169 46.3849 12.3249 45.7219 14.2149 45.7219H37.7039C38.0852 45.7219 38.4832 45.7593 38.8979 45.8339C39.3125 45.9086 39.7102 46.0206 40.0909 46.1699L61.8199 54.3459C64.7312 55.4599 67.0355 57.0609 68.7329 59.1489C70.4295 61.2363 71.2779 63.7106 71.2779 66.5719H79.7519C83.2979 66.5719 86.3055 67.7773 88.7749 70.1879C91.2435 72.5986 92.4779 75.5599 92.4779 79.0719C92.4779 79.9279 92.2589 80.7049 91.8209 81.4029C91.3822 82.1009 90.7819 82.5659 90.0199 82.7979L62.4909 91.2739C61.8782 91.4233 61.2319 91.4979 60.5519 91.4979C59.8725 91.4979 59.2262 91.4233 58.6129 91.2739ZM13.9519 82.0719H23.0649V52.2719H13.9519V82.0719Z" fill="#0B74FF"/>
</g>
</g>
</svg>
