<svg width="96" height="96" viewBox="0 0 96 96" fill="none" xmlns="http://www.w3.org/2000/svg">
<g id="Property 1=Variant2">
<g id="speed">
<path id="Vector" d="M40.7039 63.4945C42.2325 65.0312 44.4435 65.7495 47.3369 65.6495C50.2295 65.5495 52.3505 64.4662 53.6999 62.3995L71.2889 34.9975C71.8355 34.1682 71.7815 33.4265 71.1269 32.7725C70.4729 32.1179 69.7312 32.0639 68.9019 32.6105L41.7999 50.3995C39.7999 51.7489 38.7332 53.8865 38.5999 56.8125C38.4665 59.7385 39.1679 61.9659 40.7039 63.4945ZM47.7999 15.4775C50.7365 15.4775 53.8352 15.8695 57.0959 16.6535C60.3559 17.4369 63.5775 18.7052 66.7609 20.4585C67.6055 20.9412 68.1055 21.6405 68.2609 22.5565C68.4155 23.4725 68.2025 24.3515 67.6219 25.1935C67.0405 26.0355 66.3452 26.5342 65.5359 26.6895C64.7265 26.8455 63.8659 26.7235 62.9539 26.3235C60.3325 24.9209 57.6622 23.9019 54.9429 23.2665C52.2242 22.6319 49.8432 22.3145 47.7999 22.3145C38.5139 22.3145 30.5949 25.6332 24.0429 32.2705C17.4909 38.9085 14.2149 46.9482 14.2149 56.3895C14.2149 59.3962 14.6235 62.4009 15.4409 65.4035C16.2582 68.4069 17.4255 71.2005 18.9429 73.7845H76.5529C78.0222 71.3845 79.1782 68.6202 80.0209 65.4915C80.8635 62.3635 81.2849 59.2662 81.2849 56.1995C81.2849 53.9709 81.0009 51.5642 80.4329 48.9795C79.8642 46.3942 78.9119 43.9082 77.5759 41.5215C77.1092 40.6602 76.9499 39.7365 77.0979 38.7505C77.2459 37.7645 77.7329 37.0042 78.5589 36.4695C79.3662 35.8922 80.2485 35.7449 81.2059 36.0275C82.1625 36.3102 82.8489 36.9075 83.2649 37.8195C84.7682 40.7989 85.9242 43.7689 86.7329 46.7295C87.5415 49.6909 88.0045 52.6442 88.1219 55.5895C88.2392 59.6282 87.8252 63.4442 86.8799 67.0375C85.9339 70.6315 84.5492 73.9559 82.7259 77.0105C81.8465 78.6392 80.9175 79.6442 79.9389 80.0255C78.9609 80.4069 77.7479 80.5975 76.2999 80.5975H19.1999C17.9552 80.5975 16.7349 80.2862 15.5389 79.6635C14.3435 79.0409 13.4552 78.1565 12.8739 77.0105C11.1245 73.7945 9.77519 70.5015 8.82586 67.1315C7.87652 63.7622 7.40186 60.1842 7.40186 56.3975C7.40186 50.7855 8.46452 45.4985 10.5899 40.5365C12.7152 35.5745 15.6065 31.2435 19.2639 27.5435C22.9212 23.8435 27.2109 20.9075 32.1329 18.7355C37.0549 16.5635 42.2772 15.4775 47.7999 15.4775Z" fill="#0B74FF"/>
</g>
</g>
</svg>
