<svg xmlns="http://www.w3.org/2000/svg" width="69" height="20" viewBox="0 0 69 20" fill="none">
  <path d="M0 0l13.28342 0 0 6.54297-6.72264 0-6.56078-6.54297z m0 6.54297l6.56078 0 6.72264 6.69459-6.72264 0 0 6.69566-6.56078-6.6962 0-6.69405z m21.73365 8.4087l0-9.88595 6.11296 0 0 1.97525-3.8183 0 0 2.59247 3.81884 0 0 1.97471-3.81884 0 0 3.34352-2.29466 0z m7.48501 0l0-6.84674 2.28548 0 0 1.52905c0-0.45591 0.30484-0.92153 0.60968-1.22529 0.45699-0.30376 0.77154-0.45591 1.22798-0.4559 0.30484 0 0.45698 0.15215 0.60968 0.15214l0 1.98442-0.60968 0c-0.60968 0-1.07584 0.15215-1.38067 0.60806-0.30484 0.30376-0.45699 0.91128-0.45699 1.67095l0 2.58331-2.28548 0z m8.39844 0.3043c-1.0753 0-1.83767-0.45645-2.4468-1.06397-0.45699-0.60806-0.76236-1.51934-0.76237-2.58331 0-0.75967 0.15269-1.36719 0.30538-1.8231 0.28081-0.55618 0.70044-1.03045 1.21828-1.3769 0.45753-0.30376 1.06667-0.45591 1.68551-0.4559 0.45753 0 0.91451 0.15215 1.3715 0.30376 0.3043 0.15215 0.60968 0.45591 0.76184 0.92153l0-1.07369 2.28548 0 0 6.84674-2.28548 0 0-0.91128c-0.15215 0.3043-0.45753 0.60806-0.76184 0.91182-0.45699 0.15215-0.91397 0.3043-1.3715 0.3043z m0.60968-1.82364c0.60968 0 0.91398-0.15215 1.21935-0.60806 0.3043-0.30376 0.45645-0.75967 0.45645-1.21558 0-0.60752-0.15215-0.91182-0.45699-1.36718-0.30484-0.30376-0.60968-0.45591-1.21935-0.45592-0.45645 0-0.92315 0.15215-1.22799 0.45592-0.3043 0.45591-0.45699 0.75967-0.45699 1.36718 0 0.45591 0.15269 0.91182 0.45699 1.21558 0.30484 0.45591 0.77154 0.60806 1.22853 0.60806z m5.49411 1.51934l0-6.84674 2.13279 0 0 1.07315c0.15269-0.46562 0.45699-0.61777 0.76237-0.921 0.46616-0.15215 0.77154-0.3043 1.22799-0.30429 1.06667 0 1.82903 0.45591 2.13333 1.22475 0.3043-0.31293 0.60968-0.61669 0.91397-0.92046 0.45699-0.15215 0.92369-0.3043 1.38122-0.30429 1.67526 0 2.43709 0.91182 2.43709 2.74462l0 4.25426-2.13279 0 0-3.79835c0-0.45591-0.15215-0.76021-0.30484-1.06397-0.15269-0.15107-0.45699-0.30376-0.771-0.30376-0.45699 0-0.76236 0.15215-0.91451 0.45592-0.15215 0.15161-0.30484 0.60806-0.30484 1.21557l0 3.49459-2.1328 0 0-3.79835c0-0.45591-0.15214-0.76021-0.30483-1.06397-0.15215-0.15107-0.45699-0.30376-0.76183-0.30376-0.31401 0-0.61939 0.15215-0.92315 0.45592-0.15269 0.15161-0.30538 0.60806-0.30538 1.21557l0 3.49459-2.13279 0z m19.38829-3.79835l0 1.06289-5.03713 0c0 0.45645 0.15215 0.76075 0.45699 1.06397 0.15215 0.15161 0.60914 0.30376 1.06612 0.30376 0.76183 0 1.06667-0.15215 1.37097-0.60752l2.14305 0c-0.15269 0.60752-0.45753 1.21558-1.21882 1.67149-0.60968 0.30376-1.38068 0.60752-2.2952 0.60752-1.21881 0-2.13279-0.30376-2.74247-1.06343-0.3414-0.33794-0.6123-0.74031-0.79698-1.18377-0.18468-0.44346-0.27947-0.91917-0.27886-1.39954 0-1.21504 0.45699-1.97471 1.07584-2.74409 0.60968-0.60806 1.52366-0.91182 2.74247-0.91181 1.06667 0 1.83821 0.30376 2.60004 0.91181 0.60914 0.61723 0.91398 1.3769 0.91398 2.28872z m-5.03713-0.3043l2.89408 0c0-0.45537-0.15161-0.75967-0.3043-1.06289-0.30484-0.3043-0.60914-0.3043-1.06667-0.30429-0.45699 0-0.91398 0.15215-1.21881 0.30375-0.15215 0.30376-0.3043 0.60806-0.3043 1.06343z m6.25648 4.10265l0-6.84674 2.14196 0 0 1.52905c0.16166-0.45904 0.42168-0.87722 0.76183-1.22529 0.30484-0.30376 0.76237-0.45591 1.21882-0.4559 0.15269 0 0.45699 0.15215 0.60967 0.15214l0 1.98442-0.76182 0c-0.45698 0-0.91452 0.15215-1.21882 0.60806-0.45753 0.30376-0.60968 0.91128-0.60968 1.67095l0 2.58331-2.14196 0z" fill="#000" fill-opacity="0.3"/>
</svg>
