<svg
  xmlns="http://www.w3.org/2000/svg"
  width="30"
  height="30"
  viewBox="0 0 29.714786529541016 29.714786529541016"
  fill="none"
>
  <rect
    x="0"
    y="0"
    width="29.714786529541016"
    height="29.714786529541016"
    rx="5.5715227127075195"
    fill="#2787FD"
  />
  <path
    d="M70.77148 0.69336l19.59668 0.24414c12.58426 0.17025 23.01256 0.15748 33.42481 8.59473 6.37077 5.14699 10.43236 12.61736 11.28808 20.76269 0.77584 7.78204-2.07757 17.09788-7.13183 22.98828-8.14626 9.49397-23.94829 13.2165-29.55274 14.07715-5.604 0.8605-12.39607 1.1394 1.87793 0.70215 14.43171-0.442 17.22596 3.89722 20.85743 10.63574 3.63158 6.73874 11.96476 22.42604 17.27343 33.6416-8.12338-0.23848-17.19214-0.02269-25.42773-0.02343l-44.91992 0.0332c-4.26698-11.64494-9.0532-23.18304-13.30469-34.84473-1.25622-3.44566-2.60805-7.08875-4.05176-10.44043l0.00196 45.20606c-3.99825-0.25775-8.50013-0.07091-12.54688-0.25391-12.45093-0.56298-25.81658-0.15068-38.15625-0.87793 0.2295-5.16698 0.08176-11.5647 0.08301-16.78418l0.00195-30.08887c-0.00025-21.017 0.39881-43.39513-0.05469-64.26562l70.74121 0.69336z m-1.02929 45.70215c-6.29639-0.42796-12.685 0.00048-18.99414-0.16602l-0.00977 20.77637c4.40834 0.00525 8.83217 0.00992 13.23926 0.01367 5.02146 0.004 8.72183 0.24683 12.85254-3.16309 4.12275-4.675 4.26757-10.19601-0.25293-14.69726-1.53436-1.52759-4.6741-2.61693-6.83496-2.76367z"
    fill="#FEFEFE"
    transform="translate(7.312623500823975 8.357283592224121) scale(0.11607338488101959)"
  />
</svg>
